# xmcd CD database file
#
# Track frame offsets:
#	150
#	20795
#	35690
#	54358
#	66257
#
# Disc length: 1096 seconds
#
# Revision: 0
# Processed by: cddbd v1.5.1PL0 Copyright (c) Steve Scherf et al.
# Submitted via: CDex 1.51
#
DISCID=42044605
DTITLE=JAZZBILLY - Casablanca Dandy
DYEAR=2004
DGENRE=Jazz
TTITLE0=カサブランカ・ダンディ
TTITLE1=コモエスタAKASAKA
TTITLE2=飾りじゃないのよ涙は
TTITLE3=恋のバカンス
TTITLE4=闘牛士
EXTD=YEAR: 2004
EXTT0=
EXTT1=
EXTT2=
EXTT3=
EXTT4=
PLAYORDER=
